HIERARCHY
ROOT newVegas:Hips
{
	OFFSET 0.000000 96.479958 0.000000
	CHANNELS 6 Xposition Yposition Zposition Xrotation Yrotation Zrotation
	JOINT newVegas:Pelvis
	{
		OFFSET 0.000000 0.000000 0.000000
		CHANNELS 3 Xrotation Yrotation Zrotation
		JOINT newVegas:LeftUpLeg
		{
			OFFSET 18.735201 -5.666702 -4.541200
			CHANNELS 3 Xrotation Yrotation Zrotation
			JOINT newVegas:LeftLeg
			{
				OFFSET -0.021200 -31.938179 0.493100
				CHANNELS 3 Xrotation Yrotation Zrotation
				JOINT newVegas:LeftFoot
				{
					OFFSET 0.021200 -31.938179 -4.336299
					CHANNELS 3 Xrotation Yrotation Zrotation
					JOINT newVegas:LeftToeBase
					{
						OFFSET 0.943001 -26.722000 15.023500
						CHANNELS 3 Xrotation Yrotation Zrotation
						End Site
						{
							OFFSET 0.000000 30.670183 0.000000
						}
					}
				}
				JOINT newVegas:Left_PantLeg
				{
					OFFSET 0.663870 -9.044666 -1.108900
					CHANNELS 3 Xrotation Yrotation Zrotation
					End Site
					{
						OFFSET 1.415995 20.635357 0.000000
					}
				}
			}
		}
		JOINT newVegas:RightUpLeg
		{
			OFFSET -18.735201 -5.666702 -4.541200
			CHANNELS 3 Xrotation Yrotation Zrotation
			JOINT newVegas:RightLeg
			{
				OFFSET 0.018946 -31.938133 0.493100
				CHANNELS 3 Xrotation Yrotation Zrotation
				JOINT newVegas:RightFoot
				{
					OFFSET -0.018946 -31.938126 -4.336299
					CHANNELS 3 Xrotation Yrotation Zrotation
					JOINT newVegas:RightToeBase
					{
						OFFSET -0.943001 -26.722004 15.023500
						CHANNELS 3 Xrotation Yrotation Zrotation
						End Site
						{
							OFFSET 0.000000 30.670187 0.000000
						}
					}
				}
				JOINT newVegas:Right_PantLeg
				{
					OFFSET -0.661674 -9.044716 -1.108900
					CHANNELS 3 Xrotation Yrotation Zrotation
					End Site
					{
						OFFSET -1.415958 20.635269 0.000000
					}
				}
			}
		}
	}
	JOINT newVegas:Spine
	{
		OFFSET 0.000000 10.199997 -0.299500
		CHANNELS 3 Xrotation Yrotation Zrotation
		JOINT newVegas:Spine1
		{
			OFFSET 0.000000 11.900002 -1.516600
			CHANNELS 3 Xrotation Yrotation Zrotation
			JOINT newVegas:Spine2
			{
				OFFSET 0.000000 13.600006 -2.842500
				CHANNELS 3 Xrotation Yrotation Zrotation
				JOINT newVegas:Neck
				{
					OFFSET 0.000000 9.624100 -2.890100
					CHANNELS 3 Xrotation Yrotation Zrotation
					JOINT newVegas:Head
					{
						OFFSET 0.000000 14.068802 -1.351900
						CHANNELS 3 Xrotation Yrotation Zrotation
						JOINT newVegas:Hair_Back
						{
							OFFSET 0.000000 3.231903 -17.524799
							CHANNELS 3 Xrotation Yrotation Zrotation
							End Site
							{
								OFFSET 0.000000 19.849884 0.000000
							}
						}
						JOINT newVegas:Hair_Front
						{
							OFFSET 0.000000 31.260406 4.573800
							CHANNELS 3 Xrotation Yrotation Zrotation
							JOINT newVegas:Hair_Front1
							{
								OFFSET 0.000000 2.284103 11.993300
								CHANNELS 3 Xrotation Yrotation Zrotation
								JOINT newVegas:Hair_Front2
								{
									OFFSET 0.000000 2.284103 11.993300
									CHANNELS 3 Xrotation Yrotation Zrotation
									End Site
									{
										OFFSET 0.000000 12.208862 0.000000
									}
								}
							}
						}
						JOINT newVegas:Jowel
						{
							OFFSET 0.000000 -7.458206 6.864100
							CHANNELS 3 Xrotation Yrotation Zrotation
							End Site
							{
								OFFSET 0.000000 19.849884 0.000000
							}
						}
					}
				}
				JOINT newVegas:LeftShoulder
				{
					OFFSET 15.263000 10.923401 -0.547700
					CHANNELS 3 Xrotation Yrotation Zrotation
					JOINT newVegas:LeftArm
					{
						OFFSET 25.438599 -2.830597 -13.032500
						CHANNELS 3 Xrotation Yrotation Zrotation
						JOINT newVegas:LeftForeArm
						{
							OFFSET 29.960503 0.000000 0.000000
							CHANNELS 3 Xrotation Yrotation Zrotation
							JOINT newVegas:LeftHand
							{
								OFFSET 27.849251 0.000000 0.000000
								CHANNELS 3 Xrotation Yrotation Zrotation
								JOINT newVegas:LeftHandThumb1
								{
									OFFSET 4.487587 -3.305161 6.305391
									CHANNELS 3 Xrotation Yrotation Zrotation
									JOINT newVegas:LeftHandThumb2
									{
										OFFSET 5.480453 -3.164139 3.164143
										CHANNELS 3 Xrotation Yrotation Zrotation
										JOINT newVegas:LeftHandThumb3
										{
											OFFSET 5.159721 -2.978973 2.978967
											CHANNELS 3 Xrotation Yrotation Zrotation
											End Site
											{
												OFFSET 2.494507 5.926697 1.738678
											}
										}
									}
								}
								JOINT newVegas:LeftHandIndex1
								{
									OFFSET 18.578728 -0.527832 5.208049
									CHANNELS 3 Xrotation Yrotation Zrotation
									JOINT newVegas:LeftHandIndex2
									{
										OFFSET 3.192009 0.000000 0.000000
										CHANNELS 3 Xrotation Yrotation Zrotation
										JOINT newVegas:LeftHandIndex3
										{
											OFFSET 3.835129 0.000000 0.000000
											CHANNELS 3 Xrotation Yrotation Zrotation
											End Site
											{
												OFFSET -0.034599 3.816971 0.371180
											}
										}
									}
								}
								JOINT newVegas:LeftHandMiddle1
								{
									OFFSET 18.476105 0.000000 0.000000
									CHANNELS 3 Xrotation Yrotation Zrotation
									JOINT newVegas:LeftHandMiddle2
									{
										OFFSET 3.324875 0.000000 0.000000
										CHANNELS 3 Xrotation Yrotation Zrotation
										JOINT newVegas:LeftHandMiddle3
										{
											OFFSET 4.596550 0.000000 0.000000
											CHANNELS 3 Xrotation Yrotation Zrotation
											End Site
											{
												OFFSET 0.057701 4.578827 0.399218
											}
										}
									}
								}
								JOINT newVegas:LeftHandRing1
								{
									OFFSET 17.732719 0.121887 -4.201567
									CHANNELS 3 Xrotation Yrotation Zrotation
									JOINT newVegas:LeftHandRing2
									{
										OFFSET 2.733170 0.000000 0.000000
										CHANNELS 3 Xrotation Yrotation Zrotation
										JOINT newVegas:LeftHandRing3
										{
											OFFSET 3.178268 0.000000 0.000000
											CHANNELS 3 Xrotation Yrotation Zrotation
											End Site
											{
												OFFSET 0.119102 3.170624 0.185394
											}
										}
									}
								}
								JOINT newVegas:LeftHandPinky1
								{
									OFFSET 15.989624 -0.606689 -7.535461
									CHANNELS 3 Xrotation Yrotation Zrotation
									JOINT newVegas:LeftHandPinky2
									{
										OFFSET 2.538986 0.000000 0.000000
										CHANNELS 3 Xrotation Yrotation Zrotation
										JOINT newVegas:LeftHandPinky3
										{
											OFFSET 2.593102 0.000000 0.000000
											CHANNELS 3 Xrotation Yrotation Zrotation
											End Site
											{
												OFFSET -0.150902 2.584198 0.152708
											}
										}
									}
								}
							}
							JOINT newVegas:Left_Sleeve
							{
								OFFSET 0.267448 -0.649796 0.577675
								CHANNELS 3 Xrotation Yrotation Zrotation
								End Site
								{
									OFFSET 0.000000 15.991241 0.000000
								}
							}
							JOINT newVegas:Left_CapeC
							{
								OFFSET 15.715958 -8.608795 -6.935905
								CHANNELS 3 Xrotation Yrotation Zrotation
								JOINT newVegas:Left_CapeC1
								{
									OFFSET 0.000000 -8.688499 0.000000
									CHANNELS 3 Xrotation Yrotation Zrotation
									End Site
									{
										OFFSET 0.000000 8.688499 0.000000
									}
								}
							}
						}
						JOINT newVegas:Left_CapeB
						{
							OFFSET 26.118385 -8.608795 -7.079235
							CHANNELS 3 Xrotation Yrotation Zrotation
							JOINT newVegas:Left_CapeB1
							{
								OFFSET 0.000000 -8.688499 0.000000
								CHANNELS 3 Xrotation Yrotation Zrotation
								End Site
								{
									OFFSET 0.000000 8.688499 0.000000
								}
							}
						}
						JOINT newVegas:Left_CapeA
						{
							OFFSET 5.115639 -8.608795 -10.395809
							CHANNELS 3 Xrotation Yrotation Zrotation
							JOINT newVegas:Left_CapeA1
							{
								OFFSET 0.000000 -8.688499 0.000000
								CHANNELS 3 Xrotation Yrotation Zrotation
								End Site
								{
									OFFSET 0.000000 8.688499 0.000000
								}
							}
						}
					}
				}
				JOINT newVegas:RightShoulder
				{
					OFFSET -15.263000 10.923401 -0.547700
					CHANNELS 3 Xrotation Yrotation Zrotation
					JOINT newVegas:RightArm
					{
						OFFSET -25.438599 -2.830597 -13.032500
						CHANNELS 3 Xrotation Yrotation Zrotation
						JOINT newVegas:RightForeArm
						{
							OFFSET -29.960503 0.000000 0.000000
							CHANNELS 3 Xrotation Yrotation Zrotation
							JOINT newVegas:RightHand
							{
								OFFSET -27.849251 0.000000 0.000000
								CHANNELS 3 Xrotation Yrotation Zrotation
								JOINT newVegas:RightHandThumb1
								{
									OFFSET -4.487587 -3.305161 6.305391
									CHANNELS 3 Xrotation Yrotation Zrotation
									JOINT newVegas:RightHandThumb2
									{
										OFFSET -5.480453 -3.164139 3.164143
										CHANNELS 3 Xrotation Yrotation Zrotation
										JOINT newVegas:RightHandThumb3
										{
											OFFSET -5.159721 -2.978973 2.978967
											CHANNELS 3 Xrotation Yrotation Zrotation
											End Site
											{
												OFFSET -2.494507 5.926697 1.738678
											}
										}
									}
								}
								JOINT newVegas:RightHandIndex1
								{
									OFFSET -18.578728 -0.527832 5.208049
									CHANNELS 3 Xrotation Yrotation Zrotation
									JOINT newVegas:RightHandIndex2
									{
										OFFSET -3.192009 0.000000 0.000000
										CHANNELS 3 Xrotation Yrotation Zrotation
										JOINT newVegas:RightHandIndex3
										{
											OFFSET -3.835129 0.000000 0.000000
											CHANNELS 3 Xrotation Yrotation Zrotation
											End Site
											{
												OFFSET 0.034599 3.816971 0.371180
											}
										}
									}
								}
								JOINT newVegas:RightHandMiddle1
								{
									OFFSET -18.476105 0.000000 0.000000
									CHANNELS 3 Xrotation Yrotation Zrotation
									JOINT newVegas:RightHandMiddle2
									{
										OFFSET -3.324875 0.000000 0.000000
										CHANNELS 3 Xrotation Yrotation Zrotation
										JOINT newVegas:RightHandMiddle3
										{
											OFFSET -4.596550 0.000000 0.000000
											CHANNELS 3 Xrotation Yrotation Zrotation
											End Site
											{
												OFFSET -0.057701 4.578827 0.399218
											}
										}
									}
								}
								JOINT newVegas:RightHandRing1
								{
									OFFSET -17.732719 0.121887 -4.201567
									CHANNELS 3 Xrotation Yrotation Zrotation
									JOINT newVegas:RightHandRing2
									{
										OFFSET -2.733170 0.000000 0.000000
										CHANNELS 3 Xrotation Yrotation Zrotation
										JOINT newVegas:RightHandRing3
										{
											OFFSET -3.178268 0.000000 0.000000
											CHANNELS 3 Xrotation Yrotation Zrotation
											End Site
											{
												OFFSET -0.119102 3.170624 0.185394
											}
										}
									}
								}
								JOINT newVegas:RightHandPinky1
								{
									OFFSET -15.989624 -0.606689 -7.535461
									CHANNELS 3 Xrotation Yrotation Zrotation
									JOINT newVegas:RightHandPinky2
									{
										OFFSET -2.538986 0.000000 0.000000
										CHANNELS 3 Xrotation Yrotation Zrotation
										JOINT newVegas:RightHandPinky3
										{
											OFFSET -2.593102 0.000000 0.000000
											CHANNELS 3 Xrotation Yrotation Zrotation
											End Site
											{
												OFFSET 0.150902 2.584198 0.152708
											}
										}
									}
								}
							}
							JOINT newVegas:Right_CapeC
							{
								OFFSET -15.715958 -8.608795 -6.935905
								CHANNELS 3 Xrotation Yrotation Zrotation
								JOINT newVegas:Right_CapeC1
								{
									OFFSET 0.000000 -8.688499 0.000000
									CHANNELS 3 Xrotation Yrotation Zrotation
									End Site
									{
										OFFSET 0.000000 8.688499 0.000000
									}
								}
							}
							JOINT newVegas:Right_Sleeve
							{
								OFFSET -0.267448 -0.649994 0.577675
								CHANNELS 3 Xrotation Yrotation Zrotation
								End Site
								{
									OFFSET 0.000000 15.991302 0.000000
								}
							}
						}
						JOINT newVegas:Right_CapeA
						{
							OFFSET -5.115540 -8.608795 -10.395824
							CHANNELS 3 Xrotation Yrotation Zrotation
							JOINT newVegas:Right_CapeA1
							{
								OFFSET 0.000000 -8.688499 0.000000
								CHANNELS 3 Xrotation Yrotation Zrotation
								End Site
								{
									OFFSET 0.000000 8.688499 0.000000
								}
							}
						}
						JOINT newVegas:Right_CapeB
						{
							OFFSET -26.118187 -8.608795 -7.079266
							CHANNELS 3 Xrotation Yrotation Zrotation
							JOINT newVegas:Right_CapeB1
							{
								OFFSET 0.000000 -8.688499 0.000000
								CHANNELS 3 Xrotation Yrotation Zrotation
								End Site
								{
									OFFSET 0.000000 8.688499 0.000000
								}
							}
						}
					}
				}
				JOINT newVegas:Left_Collar
				{
					OFFSET 18.625099 8.655502 8.828100
					CHANNELS 3 Xrotation Yrotation Zrotation
					JOINT newVegas:Left_Collar1
					{
						OFFSET 14.783401 10.540405 -1.259500
						CHANNELS 3 Xrotation Yrotation Zrotation
						End Site
						{
							OFFSET 0.000000 18.199875 0.000000
						}
					}
				}
				JOINT newVegas:Collar_Back
				{
					OFFSET 0.000000 15.630707 -20.132601
					CHANNELS 3 Xrotation Yrotation Zrotation
					End Site
					{
						OFFSET 0.000000 22.523010 0.000000
					}
				}
				JOINT newVegas:Left_Peck
				{
					OFFSET 17.239599 -5.132599 25.482599
					CHANNELS 3 Xrotation Yrotation Zrotation
					End Site
					{
						OFFSET 0.000000 22.523010 0.000000
					}
				}
				JOINT newVegas:Right_Peck
				{
					OFFSET -17.239599 -5.132202 25.482599
					CHANNELS 3 Xrotation Yrotation Zrotation
					End Site
					{
						OFFSET 0.000000 22.523010 0.000000
					}
				}
				JOINT newVegas:Right_Collar
				{
					OFFSET -18.625099 8.655792 8.828100
					CHANNELS 3 Xrotation Yrotation Zrotation
					JOINT newVegas:Right_Collar1
					{
						OFFSET -14.783401 10.539993 -1.259500
						CHANNELS 3 Xrotation Yrotation Zrotation
						End Site
						{
							OFFSET 0.000000 18.199631 0.000000
						}
					}
				}
			}
		}
		JOINT newVegas:Belly
		{
			OFFSET 0.000000 -6.540398 9.014299
			CHANNELS 3 Xrotation Yrotation Zrotation
			End Site
			{
				OFFSET 0.000000 11.566666 0.000000
			}
		}
	}
	JOINT newVegas:ElvisFacialAnim_Joint
	{
		OFFSET 1.000000 -95.330101 -8.825800
		CHANNELS 3 Xrotation Yrotation Zrotation
		End Site
		{
			OFFSET 0.000000 35.315800 0.000000
		}
	}
}
MOTION
Frames: 4
Frame Time: 0.016667
-15.421857 19.251854 -73.355255 -87.131712 26.579275 5.383792 -0.000000 -0.000001 -0.000000 -72.685548 1.382382 36.294058 72.884197 11.466225 -2.220854 26.528882 8.499359 -6.890699 -0.000002 0.000000 -0.000001 0.000001 -0.000001 -0.000000 -56.107607 17.921267 -43.233578 108.571881 5.620310 6.568274 35.986204 6.404521 33.554332 0.000002 -0.000001 -0.000002 -0.000000 0.000001 -0.000001 54.055528 10.971312 -2.716703 20.535749 3.211062 0.186196 20.612230 2.862300 0.333963 2.540866 0.131338 -0.874291 2.540861 0.131344 -0.874301 0.000000 0.000001 0.000001 2.540936 0.131316 -0.874304 2.540793 0.131383 -0.874290 0.000001 -0.000003 -0.000003 0.000000 0.000001 -0.000000 0.690087 -7.698573 -13.129588 -23.121922 -24.042642 -24.824229 -0.000051 -63.058806 -0.000042 -1.509111 -20.163895 -5.466378 -8.685558 -15.954371 1.209999 21.854491 36.310829 -10.832595 0.000000 -0.000004 -0.000006 0.653241 -15.996947 0.940955 1.493570 3.908518 -41.813960 -0.000001 0.000001 0.000002 0.176397 0.770542 4.717976 1.760991 4.187608 -45.600935 -0.000002 0.000000 -0.000005 -0.158521 11.618699 1.853063 2.336932 4.681161 -53.039506 0.000001 -0.000001 0.000000 5.097415 24.546778 -12.359205 2.096976 4.491157 -50.039216 -0.000001 -0.000003 -0.000000 -0.000001 -0.000001 -0.000000 -0.000001 -0.000001 -0.000000 -0.000002 -0.000000 -0.000000 0.000000 -0.000001 -0.000000 -0.000000 -0.000001 -0.000000 0.000000 -0.000001 -0.000000 0.000001 0.000000 -0.000002 0.136767 13.961788 14.788466 -26.720448 -13.516591 33.282112 0.000003 41.763045 -0.000011 -11.101746 -25.897350 44.633927 -8.583331 16.136744 -7.178722 7.869589 -18.273635 9.753290 0.000000 -0.000002 -0.000001 1.587536 7.438675 -9.026635 0.644891 -2.366438 30.483933 -0.000000 0.000001 -0.000001 2.008391 2.097538 -33.232798 0.823272 -2.645902 34.561666 -0.000001 -0.000001 -0.000002 -0.161312 -5.730964 -3.494308 1.189567 -3.110735 41.846035 0.000001 -0.000001 0.000001 -0.080019 -27.024002 -1.328613 1.055489 -2.954418 39.312137 0.000000 0.000003 -0.000000 0.000001 0.000004 0.000000 0.000001 0.000002 0.000000 0.000001 0.000004 -0.000000 0.000000 0.000000 -0.000001 0.000000 0.000001 0.000001 0.000000 0.000000 -0.000001 0.000000 0.000001 0.000000 -0.000001 0.000001 0.000003 -0.000001 0.000001 0.000003 -0.000001 0.000001 0.000003 -0.000001 0.000001 0.000003 -0.000001 0.000001 0.000003 -0.000001 0.000001 0.000003 -0.000001 0.000001 0.000003 0.000002 -0.000001 0.000003 -0.000000 -0.000001 -0.000000 
-15.218524 19.186996 -75.034454 -91.537225 26.156749 5.790318 -0.000000 0.000001 0.000000 -69.331365 0.613734 35.397582 70.583769 11.163114 -0.748789 28.665177 8.406447 -4.500151 0.000002 -0.000000 -0.000000 -0.000001 0.000001 -0.000000 -51.875379 17.556769 -39.588316 107.017754 5.294472 4.238733 34.629547 5.522516 34.111180 -0.000001 0.000000 -0.000003 -0.000001 0.000002 -0.000001 53.930754 11.961944 -1.826188 20.987660 3.430233 0.332321 21.083090 3.010460 0.480113 2.410029 0.133645 -0.988806 2.410049 0.133653 -0.988820 -0.000001 -0.000002 0.000000 2.410099 0.133672 -0.988803 2.409963 0.133623 -0.988789 -0.000001 -0.000003 -0.000003 -0.000001 -0.000002 0.000000 0.654637 -7.640293 -13.060566 -19.361648 -24.125237 -21.499007 -0.000026 -64.350791 -0.000026 -16.742488 -19.468568 -13.423400 -8.647213 -15.819230 1.255086 21.674191 36.224950 -10.484473 0.000002 -0.000001 -0.000001 0.555431 -15.865698 0.644538 1.453107 3.862927 -41.217077 -0.000003 0.000000 0.000001 0.167802 0.758921 4.236392 1.725439 4.152560 -45.111958 0.000000 -0.000001 -0.000002 -0.074906 11.507239 1.341956 2.289184 4.644973 -52.452151 0.000000 -0.000002 -0.000002 5.165665 24.212525 -12.763512 2.067862 4.466680 -49.666352 -0.000000 -0.000002 0.000002 0.000000 -0.000000 -0.000001 0.000000 -0.000000 -0.000001 -0.000001 0.000000 -0.000001 -0.000000 0.000002 0.000001 -0.000000 0.000001 0.000001 -0.000000 0.000002 0.000001 0.000000 0.000002 0.000001 0.281188 14.030644 13.544984 -21.025802 -14.046612 33.984351 -0.000004 42.419706 0.000010 -13.856790 -29.911205 39.389547 -8.524684 16.035833 -7.103592 7.804539 -18.123448 9.475624 0.000000 -0.000002 -0.000003 1.572318 7.449068 -8.920454 0.613300 -2.311972 29.709820 -0.000000 -0.000001 0.000000 1.979176 2.094959 -32.626926 0.792738 -2.601077 33.894424 -0.000001 -0.000001 0.000002 -0.150397 -5.701287 -3.349993 1.148419 -3.064241 41.082085 -0.000001 -0.000001 0.000001 -0.000299 -26.834556 -1.130573 1.024673 -2.916432 38.710565 0.000002 0.000003 -0.000000 0.000001 0.000003 -0.000001 0.000001 0.000001 0.000000 0.000001 0.000003 -0.000000 -0.000001 -0.000001 -0.000002 -0.000000 0.000000 -0.000002 -0.000001 -0.000001 -0.000002 -0.000000 -0.000000 -0.000001 0.000001 -0.000001 0.000001 0.000001 -0.000001 0.000001 0.000001 -0.000001 0.000001 0.000001 -0.000001 0.000001 0.000001 -0.000001 0.000001 0.000001 -0.000001 0.000001 0.000001 -0.000001 0.000001 0.000003 0.000000 0.000002 -0.000000 0.000001 0.000000 
-14.827724 19.144218 -76.766327 -96.167697 25.688108 6.344271 -0.000000 0.000000 0.000000 -65.060154 0.232388 35.105219 68.041327 10.540456 0.601265 30.669674 7.550888 -3.432012 0.000000 0.000000 -0.000002 -0.000001 0.000002 0.000000 -47.739553 17.668163 -35.989168 106.102037 4.399363 1.817435 33.322608 4.626067 33.978945 0.000001 -0.000001 -0.000000 0.000002 -0.000001 -0.000002 53.770319 12.640842 -0.845201 21.302508 3.531566 0.486729 21.413452 3.045618 0.639508 2.322458 0.131517 -1.078282 2.322459 0.131514 -1.078284 0.000001 -0.000001 0.000002 2.322490 0.131537 -1.078297 2.322501 0.131524 -1.078298 -0.000000 0.000000 -0.000001 0.000001 -0.000001 0.000000 0.618662 -7.705184 -13.035392 -16.051281 -24.091790 -18.542294 -0.000001 -64.438935 -0.000005 -29.438310 -14.660917 -23.712740 -8.606945 -15.678279 1.302571 21.493728 36.137793 -10.137155 -0.000000 -0.000000 -0.000003 0.451709 -15.724111 0.326238 1.413718 3.817614 -40.628960 -0.000001 0.000001 0.000002 0.157839 0.750885 3.729254 1.690758 4.117836 -44.631103 -0.000000 -0.000001 -0.000003 0.010161 11.394068 0.806331 2.242470 4.608792 -51.872958 -0.000001 -0.000000 -0.000002 5.234650 23.869462 -13.188064 2.039525 4.442551 -49.301699 0.000001 -0.000002 0.000001 -0.000001 -0.000000 -0.000000 -0.000001 -0.000000 -0.000000 -0.000002 -0.000000 -0.000000 -0.000001 -0.000002 -0.000000 -0.000001 -0.000002 -0.000000 -0.000001 -0.000002 -0.000000 -0.000001 -0.000002 -0.000002 0.368028 14.232615 12.568250 -15.163283 -12.817752 34.004452 -0.000003 41.556893 -0.000003 -18.970103 -29.594465 30.817609 -8.466266 15.928988 -7.031891 7.746150 -17.979932 9.203215 0.000002 -0.000000 -0.000001 1.531157 7.435920 -8.676663 0.587247 -2.265752 29.057616 -0.000002 -0.000000 0.000000 1.934911 2.080030 -31.865387 0.767981 -2.563884 33.345120 0.000002 -0.000006 0.000001 -0.131338 -5.679929 -3.068212 1.114179 -3.024567 40.437356 0.000002 0.000001 0.000001 0.140573 -26.599511 -0.778687 1.000176 -2.885626 38.226441 0.000002 0.000002 -0.000000 -0.000000 -0.000003 0.000000 -0.000000 -0.000003 0.000000 -0.000000 -0.000003 -0.000000 -0.000001 -0.000003 -0.000000 -0.000001 -0.000002 -0.000002 -0.000001 -0.000003 -0.000000 -0.000001 -0.000002 -0.000002 0.000001 -0.000001 -0.000001 0.000001 -0.000001 -0.000001 0.000001 -0.000001 -0.000001 0.000001 -0.000001 -0.000001 0.000001 -0.000001 -0.000001 0.000001 -0.000001 -0.000001 0.000001 -0.000001 -0.000001 -0.000000 0.000000 0.000001 -0.000000 0.000000 0.000000 
-14.369579 19.146690 -78.487328 -100.967831 25.312541 6.994200 -0.000000 -0.000001 0.000000 -60.280258 -0.006076 35.517824 65.836904 9.830496 1.840400 31.796228 6.050646 -3.710461 -0.000001 -0.000001 0.000000 0.000001 0.000001 -0.000000 -43.202849 17.873620 -32.950267 105.533185 2.975654 -0.471053 32.041831 3.874526 33.729796 -0.000001 0.000001 -0.000001 0.000001 0.000001 0.000001 53.399720 12.904035 0.220080 21.392876 3.485087 0.638483 21.512840 2.946439 0.804823 2.300673 0.128878 -1.132711 2.300666 0.128866 -1.132680 -0.000000 0.000000 -0.000003 2.300700 0.128883 -1.132710 2.300706 0.128825 -1.132679 0.000000 0.000001 -0.000001 -0.000000 0.000000 -0.000001 0.583245 -7.873912 -13.009944 -13.224164 -24.020098 -16.352813 0.000004 -63.453714 -0.000001 -35.332196 -4.373214 -31.544665 -8.564867 -15.531826 1.352410 21.313218 36.049496 -9.790842 0.000003 -0.000001 -0.000003 0.342720 -15.572435 -0.012850 1.375383 3.772558 -40.049641 -0.000001 0.000000 -0.000003 0.146526 0.746358 3.197627 1.656951 4.083383 -44.158286 0.000001 0.000000 0.000002 0.096297 11.279228 0.247319 2.196763 4.572668 -51.301909 -0.000001 -0.000001 0.000002 5.303523 23.518121 -13.631764 2.011982 4.418770 -48.945115 0.000001 -0.000003 -0.000000 -0.000000 0.000001 0.000001 -0.000000 0.000001 0.000001 -0.000001 0.000001 0.000001 -0.000001 -0.000001 -0.000001 -0.000001 -0.000001 -0.000001 -0.000001 -0.000001 -0.000001 -0.000002 -0.000003 -0.000000 0.413011 14.399156 11.899807 -8.989446 -9.774897 33.560179 -0.000000 39.122234 -0.000002 -23.648651 -24.014334 23.764224 -8.408926 15.818479 -6.963143 7.693863 -17.841829 8.937308 -0.000006 -0.000001 -0.000002 1.460733 7.396303 -8.275158 0.567204 -2.229301 28.546350 -0.000002 0.000000 -0.000002 1.874019 2.050738 -30.926844 0.749637 -2.535816 32.932635 -0.000003 0.000000 0.000002 -0.103144 -5.668198 -2.628683 1.087585 -2.993132 39.930703 -0.000001 -0.000003 0.000001 0.348473 -26.329087 -0.252836 0.982743 -2.863400 37.878942 0.000001 -0.000000 -0.000000 0.000000 0.000003 -0.000000 -0.000001 0.000001 -0.000001 0.000000 0.000003 -0.000000 0.000001 0.000000 -0.000001 0.000001 0.000001 -0.000001 0.000001 0.000000 -0.000001 0.000001 0.000001 -0.000002 0.000000 0.000000 -0.000000 0.000000 0.000000 -0.000000 0.000000 0.000000 -0.000000 0.000000 0.000000 -0.000000 0.000000 0.000000 -0.000000 0.000000 0.000000 -0.000000 0.000000 0.000000 -0.000000 -0.000000 0.000000 -0.000003 -0.000000 -0.000001 0.000000 
